# xmcd
#
# Track frame offsets: 
#        150
#        17467
#        34932
#        47090
#        76075
#        95995
#        112902
#        136020
#        155827
#        156425
#        161192
#
# Disc length: 2379 seconds
#
# Revision: 3
# Processed by: cddbd v1.5.2PL0 Copyright (c) Steve Scherf et al.
# Submitted via: ExactAudioCopy v0.99pb5
#
DISCID=8709490b
DTITLE=Little Feat - The Last Record Album
DYEAR=1975
DGENRE=Rock
TTITLE0=Romance Dance
TTITLE1=All That You Dream
TTITLE2=Long Distance Love
TTITLE3=Day Or Night
TTITLE4=One Love Stand
TTITLE5=Down Below The Borderline
TTITLE6=Somebody's Leavin'
TTITLE7=Mercenary Territory
TTITLE8=Bonus Announcement
TTITLE9=Don't Bogart That Joint (omitted track from the single CD vers
TTITLE9=ion of 'Waiting For Columbus') (Bonus Track)
TTITLE10=A Apolitical Blues (omitted track from the single CD version 
TTITLE10=of 'Waiting For Columbus') (Bonus Track)
EXTD=YEAR: 1975
EXTT0=
EXTT1=
EXTT2=
EXTT3=
EXTT4=
EXTT5=
EXTT6=
EXTT7=
EXTT8=
EXTT9=
EXTT10=
PLAYORDER=
